<svg version="1.0" xmlns="http://www.w3.org/2000/svg"
viewBox="0 0 119.000000 172.000000"
 preserveAspectRatio="xMidYMid meet">
<metadata>
Created by potrace 1.16, written by Peter Selinger 2001-2019
</metadata>
<g transform="translate(0.000000,172.000000) scale(0.100000,-0.100000)"
fill="#000000" stroke="none">
<path d="M596 1698 c-25 -38 -57 -115 -108 -263 -62 -180 -82 -202 -224 -250
-113 -38 -204 -76 -204 -85 0 -4 21 -6 48 -6 54 0 183 -11 203 -18 8 -3 30 -7
49 -10 19 -3 58 -8 85 -13 62 -9 246 -9 300 0 22 3 63 9 90 13 28 3 52 8 56 9
6 4 131 17 189 19 22 1 42 5 45 8 6 6 -107 53 -219 90 -48 16 -83 36 -112 63
-37 35 -47 53 -73 140 -16 55 -29 101 -27 102 1 2 28 -6 59 -16 45 -16 57 -17
57 -6 0 12 -110 168 -135 190 -6 6 -23 21 -37 33 l-26 24 -16 -24z"/>
<path d="M315 938 l-27 -21 21 -16 22 -17 -23 -42 c-18 -34 -20 -44 -10 -51
11 -6 3 -21 -30 -62 -107 -131 -179 -263 -233 -424 l-27 -79 22 -18 c26 -21
45 -22 106 -7 58 15 94 0 123 -52 25 -43 24 -43 66 -31 32 9 59 1 108 -32 15
-10 39 -18 55 -18 15 1 42 2 60 2 18 1 49 -8 69 -20 19 -11 37 -20 38 -18 1 2
-21 66 -49 143 -29 77 -52 143 -53 148 -1 4 -13 56 -27 115 -14 59 -29 145
-32 191 -8 94 -6 95 67 29 20 -18 63 -55 95 -82 32 -27 135 -126 228 -220 172
-173 175 -175 249 -177 60 -1 53 54 -33 251 -40 92 -100 190 -178 286 -37 45
-47 65 -39 73 8 8 5 23 -10 54 -21 42 -21 44 -2 55 22 14 24 28 5 35 -8 3 -13
-1 -12 -11 1 -12 -22 -26 -79 -49 -44 -17 -89 -34 -99 -37 -34 -9 -19 -16 68
-31 16 -3 38 -11 50 -17 20 -11 20 -11 -4 -20 -39 -15 -160 -1 -241 28 -73 26
-186 81 -223 109 -19 14 -19 15 -1 35 24 26 15 26 -20 -2z m22 -335 c-6 -66
-43 -193 -57 -193 -25 0 -13 133 19 205 28 64 45 59 38 -12z"/>
</g>
</svg>
