<?xml version="1.0" standalone="no"?>
<!DOCTYPE svg PUBLIC "-//W3C//DTD SVG 20010904//EN"
 "http://www.w3.org/TR/2001/REC-SVG-20010904/DTD/svg10.dtd">
<svg version="1.0" xmlns="http://www.w3.org/2000/svg"
 width="288.000000pt" height="288.000000pt" viewBox="0 0 288.000000 288.000000"
 preserveAspectRatio="xMidYMid meet">
<metadata>
Created by potrace 1.16, written by Peter Selinger 2001-2019
</metadata>
<g transform="translate(0.000000,288.000000) scale(0.100000,-0.100000)"
fill="#000000" stroke="none">
<path d="M0 1440 l0 -1440 1440 0 1440 0 0 1440 0 1440 -1440 0 -1440 0 0
-1440z m985 934 c116 -34 197 -86 300 -189 65 -65 100 -110 126 -161 l37 -71
-6 192 c-3 118 -1 194 5 198 22 14 575 19 776 7 271 -15 300 -20 311 -46 5
-11 19 -25 30 -30 18 -8 22 -21 27 -84 4 -41 3 -129 -2 -195 -5 -66 -9 -128
-9 -137 0 -15 -10 -17 -98 -11 -54 3 -124 2 -157 -2 l-58 -7 6 -654 c4 -496 3
-656 -6 -661 -7 -5 -108 -10 -224 -11 -191 -4 -213 -2 -213 12 0 9 -11 21 -24
26 -18 6 -27 19 -30 42 -3 18 -8 292 -10 608 -3 316 -8 591 -12 611 l-6 37
-116 4 c-81 2 -117 7 -120 16 -6 19 -33 43 -41 37 -5 -2 -4 -30 1 -62 10 -63
4 -169 -14 -240 -8 -33 -18 -47 -37 -55 -57 -24 -370 -6 -379 21 -2 5 -16 22
-31 39 -26 27 -29 38 -36 132 -7 91 -10 106 -32 128 -20 20 -31 23 -63 19 -67
-9 -94 -28 -103 -72 -4 -22 -11 -175 -14 -341 -8 -423 6 -489 100 -489 93 0
120 39 137 197 6 56 13 110 16 119 3 13 25 15 157 12 195 -5 211 -7 225 -38 6
-14 18 -25 26 -25 27 0 41 -70 41 -210 0 -125 -2 -140 -28 -204 -69 -170 -192
-277 -387 -337 -61 -19 -99 -23 -200 -23 -110 0 -135 3 -205 27 -146 50 -257
140 -311 255 -38 81 -45 214 -42 790 l3 487 43 89 c86 175 200 258 382 276 93
10 174 2 265 -26z"/>
<path d="M710 2370 c-81 -10 -163 -40 -217 -80 -49 -36 -112 -127 -145 -208
-23 -56 -23 -62 -26 -539 -3 -550 4 -709 38 -778 110 -228 530 -288 801 -114
65 42 144 129 180 200 42 84 63 217 50 315 -6 41 -16 84 -21 95 -12 21 -15 21
-212 23 l-117 1 -6 -25 c-3 -14 -9 -67 -14 -118 -15 -142 -51 -182 -165 -182
-65 0 -70 2 -101 34 -62 66 -70 121 -70 466 1 477 4 489 138 498 84 5 112 -5
143 -53 22 -33 43 -135 44 -207 0 -55 1 -57 33 -67 52 -16 170 -24 251 -16
l76 7 14 51 c26 91 28 138 11 222 -63 314 -354 516 -685 475z"/>
<path d="M1470 2142 c0 -135 3 -183 14 -197 12 -16 31 -19 137 -23 68 -2 131
-8 141 -13 10 -5 19 -28 24 -61 4 -29 10 -325 13 -656 l6 -604 165 1 c91 1
179 4 197 7 l32 6 -6 659 -6 659 156 0 156 0 8 38 c4 20 7 104 8 185 0 111 -3
150 -13 156 -22 14 -249 21 -649 21 l-383 0 0 -178z"/>
</g>
</svg>
